<mxfile host="65bd71144e">
    <diagram id="3iGrgH-m1IBC5daQ1eoG" name="Page-1">
        <mxGraphModel dx="1003" dy="631" grid="1" gridSize="10" guides="1" tooltips="1" connect="1" arrows="1" fold="1" page="1" pageScale="1" pageWidth="850" pageHeight="1100" math="0" shadow="0">
            <root>
                <mxCell id="0"/>
                <mxCell id="1" parent="0"/>
                <mxCell id="3" value="" style="swimlane;startSize=0;" vertex="1" parent="1">
                    <mxGeometry x="30" y="80" width="790" height="600" as="geometry"/>
                </mxCell>
                <mxCell id="4" value="" style="shape=image;verticalLabelPosition=bottom;labelBackgroundColor=default;verticalAlign=top;aspect=fixed;imageAspect=0;image=data:image/jpeg,/9j/4AAQSkZJRgABAQAAAQABAAD/2wCEAAkGBxITEhUTExIWFhUXFRUbFRcVFxcdGRcWGhUaGRgdGBcaHSggHRolGxUXJDMhJSkrLy4vFx8zODMsNygtLisBCgoKDg0OGxAQGy0mICYtLS0vLi0tNS0tLS0vLS0tLy0tLS0tLS0tLS4tLS0tLS0tLS0tLS0tLS0tLS0tLS0tLf/AABEIAOEA4QMBEQACEQEDEQH/xAAbAAEAAgMBAQAAAAAAAAAAAAAABQYCAwQHAf/EAEYQAAEDAgMFBAUJBgUDBQAAAAEAAgMEEQUSMQYhQVFhEyJxgTJikaGxFCMzQlJywdHwBxVTgpLhFjRDovFEVLIkY4OTwv/EABsBAQACAwEBAAAAAAAAAAAAAAAEBQECAwYH/8QANREAAgEDAQUECQUBAQEBAAAAAAECAwQRIQUSMUFRE2Fx8AYiMoGRobHB0RQVQuHxUiNiFv/aAAwDAQACEQMRAD8A9xQBAEAQBAEAQBAEAQBAEAQBAEAQBAEAQBAEAQBAEAQBAEAQBAEAQBAEAQBAEAQHx7gASTYDeSdAOqAqr9r5H3dTUUk0QJHal7Y2utr2YcLuHXdott0wS2A47HVB2UOY9hAkjkFnsJ0uOINtxCw1gySqwAgCAIAgCAIAgCAIAgCAIAgCAIAgCAIAgCAIAgCAIAgK1tq8yCCjaSDUyZXkaiFgzy28gB5lZXUwTNRGyOHI0ANDQ1rRoBoAPD8EXEMr2w7e0kqqv6kr2xx+syEFuYdC4n2LMmEW1amQgCAIAgCAIAgCAIAgCAIAgCAIAgCAIAgCAIAgCAICLxnH6ema4yyNDgLiMObndyDWXubrWct2Llgyll4Kxs1ir63EO1fF2bYqd2Rt7n5x7bOJsN5aCuVtX7aDljnj4HStS7OWO46P2g4o4RiGM9+Uljem7vu8m7v5l1q1Y0acqkuCRpTg6k1CPMgqLG8QijZFGKZrGNDWgNfoBxuTv6rzb28+ny/st1svzk2Ox7Ez/rQjwZ+YWj27LkvkbLZaNZxbEz/1gHhFH+LVze3Knf8AI2WzImBrcQOtc7yjYPgtHtur5/w3WzYef9MDidfD842rdJl3lkjQWuA1H/Fj1W9HbFRzSZpV2dBRbR6TguItqII5m6PaDbkdHDyII8l6mlNTipIpJxcZNM7CV0NTzPEdo6qqleYJzDA1xawsAzPt9YnkfgV5y+2tKE92Bb2tgpxzI1NrsQGlc7zjYfiCoa23V7/PuJD2bDz/AKbWY1iY/wCpjd96No+DV0jtya4/RGj2ZE2N2mxMcaZ3i1/4ELqtuvyv7NHsvzk2s2wxEelBTu+6XD4vK6R26uePmaPZkuRtbtzVj0qFp+7KPyK6rblPz/ho9mz8/wClm2a2ijrGOLWlj2G0kbtWk6eINjv6FWtvcQrRzEg1aUqbwyZUg5BAEAQBAEAQBAEAQETtNixpoczG5pXvbHC06OlebNB6anyWUsgq20cVXSwOqHV8rpWtuWtbGIrlwAAYW6XNrnktlhmGTFLshTMg+cjbJLlLpJJAHOe+13El1911hSeRgr+DVVPh9TVneG5IOzjG9z3uL+7GNTv4cFlowjRWOl+VRy1lO6FjmFkV3NcO0c693Ob6LiN1j/xT7cpVqtq40dcPL64XQlWlRU6m8yfbhI/hjzP914mNpdS5Y+Bau7f/AEbW4QPst/Xkuy2fcPjJGju31ZBbUVkcAZGxzBJJxDb5GcXWAN3HQDnfkrPZmx1Vm6lWeYR4+PRvPxI9e8mlhZyyGZARvjZWh329+/qWPNj4WV5Vq7La7Obp/L6ohp3Oc6knhONOzdlURuY47mPcwsa/oQdwd4Egrze0NlUknWs5qUeLSeWu/vXzRMpV5P1aiwyW2Dn7GeeiPog9rD9x25wHhu/3K/2Ld9rSw+PnP5ON3DXeJDb/ABR0VOIY/pag9mwcQDuefYbX4ZgVNv7hUaTfnvOVvT3p56HBh1HHFE2O4DWN1I14uJ5b7lfPXJXFVuTazw0yWjbitCCrtpIi4th7IgayTODWk+qz0nDruC9JbejM361ao13Ja/0Q57Qa9n6muKulPeb8mmA3lkYIcR6pzHf4hTano5Q3fUnJPvaa+iNI7SrJ6lkoaGKaNsseUtcLjUeII4EG4I6LztXZlzTk4uSyvPQnRvm1lNmUuDNAvb2OP4rhUtbinFyeMI6RvZN4yQlRHlcRy+C5xe8kyxhPejk7/wBnEDnzVFSBaN2WNnrFup+HtPJez2PRlCnllBtCopT0L6rkrwgCAIAgCAIAgCAICs7cnK2llPoRVkLnk6BpzMv5FwWUYZltvh5mp5GAb3MIH3gczR5kLaIZwf4hlqm00NM5rHzROdLI8X7LJZr2tZxfmPHh43GMYBK4PspBA/tXF00/8WU3cPujRvlvtxWG2zJ07VU7JKOoa8AjsZDv4FrS5p8QQD5IuII7ZyoMlLA5xu4xR5idScguT46ry9ScJVZqPKTXzJkU1FZ6Crc7MQTu4LzV/Uq9q4Sen2JlJR3co4I6JgkdJa73WGY6gDQDkPBcJ3VSVJUc4iuXf1fVmyppS3uZ0KMdD4RfcdFlNp5RjBC7QOMMkFY0b4XgPtxjducPeR/MrrYt06VXd9/5+Ryqw3otGUNT8srJKnWKL5uDr9p3nc+ThyUzb17vvcjz+n9s0t6e5Ek6qmbI3I8XadRcgHobajovPULidCe/TeH16eB2lBSWGYw0UTRZsbGjo1o+AW07uvUeZTb97CpxXBGmrwiCT0om34OaMrh4ObYrvb7TuqDzCb8HqvgzSdCEuKMtlqSSndJEXF8TjnY4+kCfTDvcbjW5V8tqRvN17uJaqX2a+ncRexdPPQlcVqg1vx/AKBtGtnFGPPiSLak5SKTiJkmkZTx/STOtf7LPrE9LA+QK32daupNYJ91VVKnurz/p6hhdAyCJkUYs1jQB15k9Sbk+K9xCChFRR5uUnJ5Z1LcwEAQBAEAQBAEAQBAc2I0TJonxSC7HtLXDoeXUa36ICmYLtFIxkkFRBNMyGWSFs8TMxPZm3zjQbg2t3uN/EnbHNGCOg2cqKiofVUuekDSDGZmlpkkNw92TflBFgbg5uWtstjBaaahxNwtNVQsHEwRXeR0dJ3QeuUrXQH3bGQQYfM0XOZnZtuSXOdIcu8neT3iSfFYylq+RnDeiI7ApwxjGjRrWtI6AWHwXzf8AVSp3Mqj4Sbb97Lurb7qUfgSdey4Dh+hwXfadNSjGrHz0OFB4e6QGMYt2OVjGGSaQ2jjbqep5D9cyOWytlTvpvXEVxf2XebV66prvOinwHE3NzungY7Xs8hc3wLwb+y69X/8AnbHd3cS8c6/gg/q6ucmyB8gJZMzJI3UA3a4HRzHcWmx6i1ivJbU2ZKyqYzmL4P8APeT6FbtF3n2spxJG5h0c0g+YVfSqOnNSXI7mvDKJsMTI2/VG88zqT5m62r1nVqOb5mEsHUuIInENo6aF2R8ozDUNBJHjbcD0VrbbGvLiO/CGnV6fA4TuKcHhs6cNxWGcXikDrajeCPEHfbqo93s+4tXitHHfy+JvTqwn7LJak7oLz4BSLFqjTlWl4I0q+s1FFdxmuHeJPdbck9f1uXOlGVSWXxkWVCCpw3mSP7O8KNnVkg78u6MH6sXT71h5AHivcbMtVSp58+WUd5XdSeC6qzIYQBAEAQBAEAQBAEAQBAVXCJ201bUU8hyiok7eAnR5cAJWg/aDgN3IrL4GC1LBkwlkDQXG9gN9gSfIDeT0CAoGOMlxGpbTua+CNsMksGcWc+QEMa57dWN7xsDY687DWrT36binx0NoS3ZJ9CLwiue1zmSDLLGcsjTxtx8+f4ELwF9aOnJxaPS0pxr0+8uFFOHNy33EbiuVpV3ou3qc+Hn6FfWg4y3uhF7D0na1dXVPFzG8wx+rl9K3iMv9Tua9zs23VvaQp88Zfiysqz3ptlb2x2iknrDAJzDAyURktJAuHZXvfYi9jfdpZvUqxSwjkWbCKhpM1N8oFT2DWOjmuC7K/c9hcCc2UgG/UDgqP0goKpZuXOOH9voyRayxUwdS+eYLY+rBk5quGSUthiJa6Q2LxrHGBd7h1tZo6vCu9hWUbm5zNZjHXHXoiLdVHCGnMh67H/ks4ocNhjBDgxz3C7nyaEXuNDuLjyOgG/6JjmyqPuNUb3xyVIibBXUhaZ2x+hLG4XzWHAtvrv7rgeFuNejCvTdKospm0ZOL3kSk+KB0Mbmbg9gLelxck9Rey+d3UHCr2HKGni+peWkO09d+e4gKehNZUsphfs22fOR9kaNvzO7234K32TZ9pPeflG9/cbsd1Hq0bA0AAWAAAA0AGgC9elg8+ZLICAIAgCAIAgCAIAgCAICM2iwhlTA+NzWklruzLh6D8pDXA8LFZTwCpbM4lCxgjlnnimYA2WKSY7nAb8ok+qde6bb1s1kwTuIbY0kTd8rSbaBwc4/ytJKwojJo2ThknlfiEoy9pGGQNuLiG+a7rbruNjbhZJdEEc23uBONqyAfOxj5xo/1Ixr4kD3eAVVtGzVaDa4k20uHTlgicFxJrgCD3Xf7SvDXNCUXjmi8qRVWO/EnNgxkdWRH0vlJl/klY3Kfaxw8ivf7OuFXtKc+7D8Voebqx3ZtHmO1tA6GsnY4ayOe082PcXNI9tvEFWSehxLR+zqhcyGeocLNkyxx34hpLnnw0F+YKpPSCsqdnKPOWEvPgSLWOamehK4TUdqXyj0CcsfVjL3d5uLvJoXir6ireMKD9pLMvF8vcse9ssaUt9uXLkSKrjuSWBNGdx4htgehO/4N9i9X6LNb1Vdy+5Avf4niuKZ2VMu8te2aQ3BIIcJCbg8777r23Iri5bCPe+HEaiZznAw5XOcSS4hjybk8mlvtC1kZRHwVXZUrHO1DAGjqd4HvXhbyCrX1RR6/TQ9LbYpW0W+h6BsPgZpoM0n00pzyk6gnRvlf2kr1lnbqjTS5lFcVe0nksalnAIAgCAIAgCAIAgCAIAgCAICpftKw5slIZcgLoXMfoLlgNni/2bOJt6qzEwyt4dTRZQ5kbBcaho3+fVMs5Jll/Z1VfMPpie9TyFovqY3EvjPvI/lR9Tqi2LBk8y2own5FP2rB/wCmmd3gNIpD8Gn8xwC85tawz68F56FvYXWPVkSWC1NpGvv32tyn14yb5Tzsd4PDzN6Sx2jUsZvCzB8V39V3na9tFP1kWGvkpJgO1ibJbQPjDreFwvRP0is1HeTeemPK+ZV/pKmSoYlWy1sr6Zo7CCKzXgEZ3NOgaBuDSBry9ihXl7CEYXk/Wk16i/jHq2+cvPeb06bbdNader/omYYg1oa0ANaAABoANF4+pUlUm5yeW9WWEUksIzWhsbqOo7Nwdw0PgrDZl67SuqnLg/A41qfaRwa8a2OpKyTtsz2ONsxjLRmtu7wcDZ1ha6+jW93SrQ3qck0VEoOLw0Rm0UkEMLcPgIYwkdqc28i9y0E73PcbXPAXHK0O82iqcJdj60u7VLvb+xLtrXtJLf0Xfz8Dg2Vw75XV5yPmKYi3J8vAeAtfyHNVuyLRt9pLxJe0K/8ACJ6avSFQEAQBAEAQBAEAQBAEAQBAc9fXRwsMkrwxo4n4DiT0C0nOMFvSeEZjFyeEQn7yq6j6CMQx8JJhd7hzbENP5lDlczl7Cwur/B23Ix9p5fcYPwHOD29VPLcWc0OyMN9e40WUSdT/AKm357jZPokav8KUg0bIPCR35rn2seWfibZl3fA1wbNmF5lp6iRjyLHtA14c0G4B0NuuoW8bqS4Sfv1MYi+MV7tDsGN1EP8AmYMzf4tPdwH3oz3gOu9Sqd9/0vh+DR0k/ZfxN2KYlRzUcz3ObJDkOe2vqix3tfe1r8bKTOpSnSbbyjWMZxmlzKBgGcQx39Lhztfu+5eEu911Hg9NRX/liRbm6b9eKp3x0IRHV9C7tGzxW7Ros4HcJI+LSeBGoPP3WNrdw7KVtW9h6p84y6ru6o4VKb3t+PH6o74nOI7wAPIG/vsFBqKCeIvPuwdY55ma5mwQwaaqoaxpc5zWix3uIAv4ldqNGpVkowi34LJhyivaeEUuR8UzZREwOdlJL8urjp3jvJ3Hf0XpXG7tOznVlhZ0jnl4LRI6J29ZSjTjnTjj78T0L9nbojQxdnwuJOfa371/cR0IXqreUHDMOBR1VJSxIsq7nMIAgCAIAgCAIAgCAIAgOLF8TZTxl77neA1o9J7jo1o4krnVqqnHeZtCDk8IgoqcZhU1z2CTWONzgGQjkAfSfzd+SrJyz69T3Lp56nf/AOYf6bJtqqQazg/dDnfAFRJ1ZTNlSl0MGbU0Z/1reLHj3lq5m3Zy6EjS10UgvHIx3PK4G3jyQ1aaIzFcebGO6LkmzbC5cfVH4rGc8CRChpmXwIo1VZJvMgiHIAOd58PYsZR3VFdCOrMB7TMXSkudrdoAPHeG2vvWd82VJI6MI+kLJAGvaLhvBw5t6Khv6EqSzHVPmd5V8x3eZltTiUlPE2SPL6YDg4EixaTwI4j3rbYllRvK0qVXPDKw+9EG5qSpxTidlNQYm9jXtFGWua1w70wNiLj6p5r0L9GLXlOXy/BEV5Poje3CcTPCjH88x/8AytV6MW3/AHL5fgz+sn0RtbgFe70p6dn3Inu/8nhdY+jdkuO8/f8AhGHd1O43x7JPP0tbM7pGI4x7ml3vU2lsexp+zTXvy/qcnXqPmVH9peDU9MyDsmHM9z8z3Oe9xDQ3VziTbvaKzpRjFYikl3LBxlrqzHCsJMELS4d5+9/QnQez33XhNqX6urlqPsx0X3fxPQ7NgoU8Pi9Tq2cxH5HV2JtBUEB3Jkv1T0Bv7/VVnse8/hLz0/Bw2hb/AMkenL05TBAEAQBAEAQBAEAQBAEBXMR2fkqJ+1kmcxjN0TYvSA4uLzo49BpbeolS3dWeZPC5JHaNVQjhI7KTZmkYb9i1zuLpO+Sed3XXSFtSjrj46mrqzfMkjTsyluRuUixbYWI5EaWXXdWMYNMsqOL4G6nvJAC+HV8WpYOLo76j1f0Ku6ssetT+BOoXX8ZHG/CI5GiRrQQRdskW4+7ffxCrdUS1OnLTgzTSUJa8ve8vNrMJ1DePn1WGzqo4eWSMcTneiCfBYEpqPFm793yfZ94/NZwzn+op9SNxKjcbEd2Rm9hPPkehWsoqScZLRm7xNZRB7W14ko2EDe6UAt4hwa649vxC57BtZUb+afKL+bWCDdy/814lswuhxaCKONr6R7WsaAJBKHAAAAZm7jbS/Rex0K4k4qrER6VNTnq2oePcYisaA646irOtPEP/AJ3fhCmhk74i63eAB5Akj2kD4LAKRitU2umblANPA4lrrfSzDd3T/Dbz+seYC8/t3ait6boU368uPcvy/oSrajvvefBHVLGHAg8V4WMnF5LSLcXlFaxOiztdG728jwKs6FXckpInySqwLfsJjZng7OQ/PQnJJfUj6rvMC3iDzXu7K4Vamup5m4pdnMsymHAIAgCAIAgCAIAgCAIAgCAIAgKtiEHyOXtmf5eRw7Zo0iedwkHJpO4j+1qm8t93148OZJpy31uvids9ExzgdOduI/XFV27zO0K0orB1MYALAWHRZObberI7ENoKaF2R8oz/AGGXe+/3GAn2rvTtqtTWKNHNI4KrGe0buoqw8ndjb/ycDbyXf9uqNatGadxuPKKnNs9IY5avJNG2OozmNwyu7PK0ukY0gjM1xJ4ggdFZRhONL1cb+MZ+ifB4OU5RlNvlkssL6uwdHXvLSAQXxwuBB035QfevKv0lr05ONSksrjq1+SX+ji1mMjcyvxAf68Dx60Dgf9sikQ9J6fCVJr3/ANI0dm+TNgxevHCmP/2j8Su79JLZLWMvka/pJ9TlrXVVSMk8jGRfWjgDgZByfI43y9Ba6h3XpMnHFvHD6vl4L8nSFnr6zNWIYjFTNAI32tHGwd53ABrRw66KitLC4v6rcffJ8PPcSalWFKP2MMCxYzvfE6Ls5GNDrB4eCDwuALHop1/sJ2qWJ72c40xqtccXyOVK63+RtxOC4zDUa+CqKMsPdZZ29TD3epBMrHUlQyqbfLuZOBxYePiN3mB1XodlXbpT3X588Tnf2+/HKPVoZQ5oc0gtcAQRoQRcEeS9immso889DNZAQBAEAQBAEAQBAEAQBAEAQGmrha9jmOF2uBDhzB1WJRUlhmU8PKKhSYq2mY+KdxzxP7NgAu+UEXiyt4uINvJUv6acqjgl/hJlJY3upvjw6qqd87nU8J0hjPzrx/7sg9G/2W+ZVjRtKdPV6sjubZOYbhcEDcsMbWDjlG8/edq4+JUo1OvNqgDhqgPOJ8JkpqmWKnebEdrDG4/NvjvZ0fqua69iOBF1Eu9nULuPrx16rj/fgzeFWVPgdtNjlO5gcZWMJFy172hzTxBBPArxFfZV3TqOCg2lzSbTLKNeDWcnO3aenI9Jxdd1mtaS4gE2Itu3gX14rtHYV5KSxHGi1en9mruaa5mmbEqiT6Nggbb05LF/HRmgOmqurb0dpR1ry3u5aL48X8iLUvXwiRkTC55ZT3klP0kzzfKDuuT+A5W4K2uLmhY0cy0S4RXPwX3I0ITrSLRg1AynbZm83u5x1e7mfyXgr3aNa4rqrLTHBckvPEt6VGMIbqJariBGcaHVbX1BNKvT4PiYpTx6rKxiFKASwi7XA+wrlSqPSS4lvCSqQ1JP9neKFueikPeju6En60ZO8eRPsNvqr2+y7pVae6efvaDhPJeFakIIAgCAIAgCAIAgCAIAgCAIAgKNRYlSurqqpe4OdG6OCBrRdxOU5sjRvc5zswuODdbLEWpLMfODLTWjLjSve4XewMvoy4JH3iN1+guOpWTBvsgFkAsgKlttZs1HIPSE4YfuygtPvA9i3iYZUGugEtTnDP8AMSWzBp5X3n1rpLOTRswkx+Fu6MXO4WaN1zppu965zkorek8IKMpPCR1w4PUT753dkz7DCC8+Lhub5XXm730kpU04263n1fD8v5E2lZN6zLDR0ccTQyNoa0cB8SdSepXkLi6q3E3OrJtllCCgsI3ALg22bHdQvuC0/oH9e9XezKinTdKXL6MjVo4eUR2K0W63m38lCrUXbVccnwJVtW1z8SqV4exzKiLdLCcw6t+sD0tfyJ5qx2fcujURKu6KqQPT8HxFlRCyZnovbe3EHQg9QbjyXuac1OKkjzMouLwztW5qEAQBAEAQBAEAQBAEAQBAV3bjGjTU5DD89KckQGtzq7yB9pCi3ldUqbfM7UKfaTwVTYOkihrGtfbP2FoieL8x7Sx+1Yi3S6h7GrKpRl13vlhYJO0KbhOPgXtuLB8jo4W9oWG0jr2jY77Jfvu/1Wg242urYgEi29t+vRAfUBrmlDRcoDzjajFnz1MccDO0dFJncfqMeGkMDnad29yPLXTlc3dG1hvVZY+r8EZjTlN4ijh2fwqnNaRLlcyBnzjni4mnde9xv3Ak7vUCrNnXNe5k6sm1Hil0XJfclVqcKcEsal2xhlHPTPpw5jGkd2zSA1w3tIAHA28rq0rUu0g4sjQnuSyiu7NV5kjLH/SxHI/rbQ+dteYK+cbStXQrPo/LLmEsrJMKuNwspN6IwdVHC4G9rDqrbZ9tWjUU2sLvI9WcWsHVURZhbjwVndW6rU3HnyOMJbryVXEqfK6/A69CqKlJ+y+KLq3qb0cGvYvEfk1SaZxtFOc0XJsvFvnp5N5r1+yLzeW5J/7/AGVe0Lfde8j0degKoIAgCAIAgCAIAgCAIAgPjnAC5NgNSUB5jtJVibETd12xxDshwJO9xHW5P9I5LzW3JzTxy0LjZkY8TCHDhUTCMtzZYpH2Nx3rZWbxp3iCoeyZSptzTxwXu5nXaeHFRJzZ7aakp6OGPN881ga+BrT2pm+uMlr3Lrm69k2n63IoTqGK4lJvjpo4m8O2k7xHVrA63gSosr2hF4znwN1CTPjqrFeLKd33ZXD4xrVX9Dv8+8dnIr2I4hVyPYyV7YmPzX7EudJlA399wsL34BRbva0adJypRy+/REunYTlJKTOibEIKaA9mzKGtOVu/e7hck3JJ1K8bU7a9rqdTi+OOhYK2dGHccWBUpZEC703kveeN3b9/lb3r31lR7KkkU9ee9MkFLOJE1r/k87Kkeg7uTAcjo73D2DmqDbdj2tPeXl+dCdaVP4ssUWJRa68tbe5eMhS3H60c+/BaO3qPgb24ywaAD+UqTG5qw0hGKNHZTfH6g4yPt2/l/stZXd0+f0H6Jrl8zA4m0/XPv/JcJTuZcZP4mytmv4nFiFU1wAab77la0qbTyyRQpSi8sgsZiBicb2LO80jUOG8WKsLSpKNVYOlxBSg8npezleZ6aGRxGZ0bS+32rb93DnbqvfUZOUFJ9Dy1RYk0iSXQ0CAIAgCAIAgCAIAgCAh9paeRzBkuQCS4DU8jbjbf7VlAo2KUEUjc0lxl0c02IUe5o06kcz5czpSqTi/VJ3YjC+yiMjs2aSxGY3cIx6NzzN7+xUGEtI8CXVm5PUsWQXvYX58famXwOWDJAc9dLlYTx0HiVhnSlHemkULEKUTyuBe5ojDWgsIBJ3k77dVLtLSNdPe4HW5uHTkt0whwCIODnOfJbQPdceyyn0tnUabyRJ3dSSwSqnkYIDCaJrmlrhcEbweK1lFSWGZTaeURX+HY/qyStHJrxYe5V8tl0ZPJKV5UQ/cA/jzf1/2Wv7TQ84/Bn9dUH7iP/cTf1LH7RQ8pG36+oP3G7/uZfb/da/s9DykZ/cKnlnz9yycKqTzF/wAVq9i0fKM/uFTyx+4i6wlne9v2bWv4m5W9LZFKEs/bBrO/qSWC57L0zw/M0WjAseR3bgPD8Fa6JYRCLSsAIAgCAIAgCAIAgCAIDVVVLI2l73BrQN5OgWspKKyzKTbwipmH5dIJXR5Kdpu0EWdOeDnepyHH4U1zdOrouH1JMY9n4/QsKiAIAgIDaDEA0E8GD2u0t7d3tWr1eCbQhuR3mQ1FSPYzvNOYkudcH0jvP66L0VtS7OmlzKytPfm2bSpByF0AugF0BkGE6A+woDa2jkOkbz/K78lgG5mEznSN3nYfEoDpj2fmOuVvifyBTIOuHZn7Unk0fifyTJkkqbBYWfVzHm7f7tPcsAkAEAQBAEAQBAEAQBAEBi54AuTYDUnQLGQQdVtMwkspmGok9TdG370h3ey6h1b2ENI6v5HaNF8ZaHKzCXyuElW8SOBu2Nu6Jnl9Y9SqyrXnUeZM6rEdIkwuJgIAgI/EK63dad/E8v7rVsk0aO960uBEYHR/KZg8/QQuuOUko0t6rfip1jb70t98EYu62Fuou6uitCAxyDkEAyDkEB9sgPqAIAgCAIAgCAIAgCAIAgCAID45wAudwQFen2gfKSyjYH2NnTPuImnpbe8+Cr618o6Q17+R3jRxrP4czT+4u0OapmfOdcpOWMHpG38VW1K06ntM6p49lYJWGJrAGtaGtGgaAAPILmYM0MBAap6hrPSNunH2LGTeMJS4EVWYmSDbut4k626ngtW+hLp26jrIjKGjkrDZl2QX78uhfzbHf3n/AIMu1tJVHl8DSvcqKwuJd6SmZGxrGNDWtFgBwCvIxUVhFW228s3LYwEAQBAEAQBAEAQBAEAQBAEAQBAEAQBAVOoldXPc0EikY6ziDYzvGov/AAx7/hT3d05vcjw+v9EqEdxZfH6EzFG1oDWgAAWAAsAOgUEGaAIDCaUNFybBYNoxcnhELiGM5QTcMbzOv68FjOeBLhbxjrI4IG1M2+KB1j/qTHK3xt6RHgpFO0qz1wJ3MIaIlaLZMEh1VJ2pG8RgWjHiNXefsVhRsIR1nqQqt1KXDQsrGgAAAADQDQDoFYJYIpkgCAIAgCAIAgCAIAgCAIAgCAIAgCAIAgITa2qc2ERxm0kz2xNPLN6R8mgqLeVHCnpxeh1oxzLL5G2jpmxsbGwWa0AD9c1RnZvOpuQwEAQFcxivAzPce63T+3UlaPV4LClBQjlnXs/gBJFRUtu8744z6MQ4buL+vBXNpaKC3p8SvuLhyeFwLQrAihAEAQBAEAQBAEAQBAEAQBAEAQBAEAQBAEAQETjmEvmMT2S9m+IuLTkDgS4W3gkcL+1Rri37ZLXGDpTqbudDhdHiEerIZh6jnRuP9V2qvlYVFwwzqpwfVGs44WfTU08fM5M7f6mXUeVCpHjFm2E+DRvpccppPQnYTyJyn2OsVyMuLXI7KmSzHOHI2/BYZmCzJIrmF0vb1bWnfHCA9w4F5+jB8N58lLsaO/PL4I73lXdjhF4V4VYQBAEAQBAEAQBAEAQBAEAQBAEAQBAEAQBAEAQBAEAQHJV4bDL9JEx/3mgn22utJU4S9pJmynJcGRUuyNPv7MyQ3/hSOA/pNx7lGlY0pcsHRXE0dWA4KKbtPnDIXuBJcBewFgDbVdLe3VFNJ8TFWq6jyyWUg5BAEAQBAEAQBAEAQBAEAQBAEAQBAEAQBAEAQBAEAQBAEAQBAEAQBAEAQBAEAQBAEAQBAEAQBAEAQBAEAQBAEAQBAEAQBAEAQBAEAQBAEAQBAEAQBAEAQBAEAQBAEAQBAEAQBAEAQBAEAQBAEAQBAEAQBAEAQBAEAQBAEAQBAEAQBAEAQBAEB//Z;" vertex="1" parent="3">
                    <mxGeometry x="550" y="10" width="225" height="225" as="geometry"/>
                </mxCell>
                <mxCell id="5" value="&lt;font style=&quot;font-size: 24px;&quot;&gt;Product of even or odd numbers with loops, in JS&lt;/font&gt;" style="text;html=1;align=center;verticalAlign=middle;resizable=0;points=[];autosize=1;strokeColor=none;fillColor=none;" vertex="1" parent="3">
                    <mxGeometry y="10" width="550" height="40" as="geometry"/>
                </mxCell>
                <mxCell id="7" value="Enter the first number" style="text;html=1;align=center;verticalAlign=middle;resizable=0;points=[];autosize=1;strokeColor=none;fillColor=none;" vertex="1" parent="3">
                    <mxGeometry y="60" width="140" height="30" as="geometry"/>
                </mxCell>
                <mxCell id="8" value="______________________" style="text;html=1;align=center;verticalAlign=middle;resizable=0;points=[];autosize=1;strokeColor=none;fillColor=none;" vertex="1" parent="3">
                    <mxGeometry y="80" width="170" height="30" as="geometry"/>
                </mxCell>
                <mxCell id="9" value="Enter the second number" style="text;html=1;align=center;verticalAlign=middle;resizable=0;points=[];autosize=1;strokeColor=none;fillColor=none;" vertex="1" parent="3">
                    <mxGeometry y="120" width="160" height="30" as="geometry"/>
                </mxCell>
                <mxCell id="10" value="__________________" style="text;html=1;align=center;verticalAlign=middle;resizable=0;points=[];autosize=1;strokeColor=none;fillColor=none;" vertex="1" parent="3">
                    <mxGeometry x="10" y="150" width="140" height="30" as="geometry"/>
                </mxCell>
                <mxCell id="11" value="Calculate" style="rounded=0;whiteSpace=wrap;html=1;" vertex="1" parent="3">
                    <mxGeometry x="10" y="200" width="190" height="50" as="geometry"/>
                </mxCell>
            </root>
        </mxGraphModel>
    </diagram>
</mxfile>